<svg width="184" height="91" viewBox="0 0 184 91" fill="none" xmlns="http://www.w3.org/2000/svg">
<path opacity="0.6" d="M163.753 56.7193C163.724 57.839 163.979 58.766 164.52 59.5003C165.061 60.2347 165.772 60.6134 166.651 60.6364C169.051 60.6992 171.161 59.5539 172.983 57.2007C174.806 54.8476 175.905 52.5955 176.281 50.4446C176.737 48.2958 176.534 46.89 175.671 46.2272C173.777 45.2174 171.03 46.2259 167.429 49.2529C165.218 51.1957 163.572 52.9133 162.493 54.4056L160.868 56.884C161.514 56.6608 162.157 56.5576 162.796 56.5743C163.438 56.511 163.757 56.5594 163.753 56.7193ZM158.57 62.1057C156.517 67.1738 155.458 70.9474 155.393 73.4266C155.329 75.9057 155.601 77.7135 156.212 78.8498C156.904 79.9083 158.17 80.4616 160.01 80.5096C161.929 80.5598 163.494 80.4007 164.704 80.0322C165.916 79.5837 167.664 78.549 169.947 76.9281L174.088 74.6356C174.408 74.6439 174.733 74.4524 175.063 74.0609C175.792 73.7598 176.628 73.9017 177.573 74.4866C178.518 75.0715 178.979 75.8038 178.956 76.6835C178.78 77.3191 178.033 78.3399 176.715 79.746C175.398 81.152 174.419 81.8867 173.777 81.9499C172.643 82.4805 172.034 82.7847 171.952 82.8626L172.072 82.8657C171.327 83.8066 170.595 84.2676 169.875 84.2488L168.916 84.2237C168.579 84.8551 167.483 85.4666 165.627 86.0583C163.851 86.6521 162.163 86.9281 160.563 86.8863C157.045 86.7943 154.16 85.3984 151.91 82.6987C149.742 79.9211 148.79 76.535 149.054 72.5406C149.449 66.6289 151.573 60.3623 155.428 53.7407C160.795 44.3578 166.597 39.7479 172.835 39.911C174.355 39.9507 176.063 40.4355 177.959 41.3654C180.411 42.4698 182.04 44.4331 182.847 47.2551C183.106 49.5827 182.973 51.6199 182.447 53.3668C180.375 59.1546 176.985 63.3074 172.278 65.8253C170.977 66.5915 169.367 66.9496 167.448 66.8994C163.689 66.8011 161.002 65.5304 159.385 63.0874L158.57 62.1057Z" fill="#E8CC65"/>
<path opacity="0.6" d="M126.057 76.0207L123.92 75.1245C123.939 74.4048 122.802 73.4948 120.51 72.3945C116.206 68.6807 114.261 66.5492 114.675 65.9998L114.691 65.4C114.131 65.3854 113.511 64.6089 112.831 63.0706C112.233 61.4544 111.952 59.9666 111.987 58.607C112.025 57.1675 112.677 55.1839 113.944 52.6561C115.29 50.1305 116.947 47.973 118.914 46.1838C120.882 44.3946 123.695 42.3875 127.355 40.1624C134.838 35.5564 140.114 34.2138 143.185 36.1347C145.547 37.637 147.174 39.6802 148.067 42.2644C147.935 47.3027 147.149 49.803 145.71 49.7654C145.31 49.7549 145.102 50.0696 145.085 50.7094C145.068 51.3491 144.447 52.1732 143.22 53.1814C139.634 55.6486 137.63 55.7962 137.206 53.6244C136.827 52.8142 136.478 52.405 136.158 52.3966C135.684 52.1441 135.458 51.6181 135.479 50.8183L136.233 49.5176C136.713 49.5301 137.537 48.6314 138.705 46.8213C139.874 44.9312 140.467 43.7062 140.481 43.1464C140.496 42.5866 140.424 42.2646 140.266 42.1805C140.188 42.0984 139.83 42.049 139.19 42.0323C132.879 44.6683 128.945 46.6861 127.388 48.0859C127.053 48.6374 126.844 48.992 126.76 49.1499C126.678 49.2278 126.477 49.2625 126.157 49.2542C126.173 48.6144 124.855 50.0604 122.202 53.5923C121.621 54.3774 120.749 55.595 119.586 57.2451C119.011 57.7903 118.67 58.5817 118.563 59.6192C118.536 60.6589 118.48 61.2576 118.396 61.4155C118.392 61.5754 118.387 61.7754 118.38 62.0153C118.456 62.1773 118.492 62.3383 118.488 62.4983C118.566 62.5803 118.682 62.7434 118.835 62.9875C119.071 63.1537 119.267 63.3189 119.422 63.483C119.58 63.5672 119.855 63.7744 120.246 64.1048C120.638 64.4351 120.991 64.7244 121.304 64.9727C128.44 70.6011 132.223 74.3413 132.655 76.1932C133.95 78.7079 134.341 80.5588 133.83 81.7458C133.319 82.9328 132.173 83.9032 130.393 84.657C128.692 85.4128 126.2 85.8678 122.915 86.022C119.627 86.2562 117.148 86.1913 115.477 85.8275C114.052 85.2301 112.674 84.3938 111.341 83.3186C110.011 82.1634 109.116 81.1797 108.658 80.3674C108.687 79.2478 108.942 78.6543 109.424 78.5869C109.986 78.5215 112.461 78.7463 116.849 79.2611C118.609 79.3071 120.613 79.1595 122.863 78.8182C125.115 78.3969 126.368 77.9095 126.622 77.3559C126.866 77.2023 126.678 76.7572 126.057 76.0207Z" fill="#E8CC65"/>
<path opacity="0.6" d="M87.5306 50.4049C86.1747 47.1684 84.6171 45.5271 82.8577 45.4811C81.0983 45.4351 78.3638 47.4844 74.6542 51.6288C70.9467 55.6933 67.5392 60.5259 64.4318 66.1266L61.254 72.8859C61.231 73.7656 62.2318 73.7517 64.2562 72.8443C66.3626 71.859 68.1103 70.8244 69.4991 69.7403C76.5314 64.0021 81.6246 58.9735 84.7786 54.6545L87.5306 50.4049ZM56.7599 79.4907C56.5325 79.0046 56.1452 78.5143 55.5979 78.0198C55.1327 77.4474 54.9064 76.9213 54.919 76.4415C54.9336 75.8817 54.7472 75.3567 54.3599 74.8664C53.0359 73.4713 55.3489 67.6497 61.2987 57.4017C61.7911 56.9345 62.4129 56.1104 63.164 54.9297C63.9951 53.751 64.5327 53.0848 64.7768 52.9311C64.7851 52.6112 64.9124 52.3345 65.1586 52.1008C65.4069 51.7872 65.691 51.6346 66.0109 51.6429L66.0297 50.9232C66.0485 50.2034 67.414 48.4785 70.1263 45.7485C77.3563 38.575 82.8509 36.5579 86.6101 39.6972C87.0732 40.3495 90.3126 43.4753 96.3283 49.0744L94.0123 55.0159C92.117 60.1681 92.5092 65.0601 95.1891 69.6917C95.566 70.5818 96.3438 71.4425 97.5224 72.2735C98.7011 73.1046 99.8882 73.6158 101.084 73.8071C102.835 74.173 103.69 75.1157 103.651 76.6352C103.611 78.1547 102.867 79.0555 101.419 79.3378C96.0422 79.9175 91.5694 76.5194 88.001 69.1436C86.9211 67.5949 86.2473 65.8167 85.9797 63.809C84.7362 65.457 83.4169 66.9431 82.0219 68.2671C70.4488 79.3284 62.0282 83.0696 56.7599 79.4907Z" fill="#E8CC65"/>
<path opacity="0.6" d="M45.9749 72.2464C45.9143 74.5656 43.6502 76.9873 39.1827 79.5114C37.5414 81.069 35.5897 82.2584 33.3274 83.0796C30.312 85.1615 26.7851 86.9099 22.7467 88.3248C18.7084 89.7398 15.298 90.0908 12.5157 89.3778C10.853 88.6941 9.58705 88.1408 8.7178 87.718C7.84856 87.2951 6.83087 86.4282 5.66473 85.1173C2.23584 81.5865 0.762619 75.1858 1.24507 65.9152C1.43116 58.7977 2.84741 52.0724 5.49383 45.7394C5.57798 45.5815 6.17229 44.2766 7.27675 41.8246C8.38121 39.3727 9.39942 37.1585 10.3314 35.1822C11.2634 33.2059 13.5136 29.7835 17.082 24.9151C22.1569 17.5252 26.5303 12.4778 30.2023 9.77286C31.5911 8.68878 34.5244 6.68476 39.0024 3.76079C41.6917 1.91045 44.6653 1.428 47.9233 2.31345C51.1833 3.11892 53.4555 4.97894 54.7398 7.89351C56.4114 11.2984 56.3732 15.8189 54.6253 21.4551C52.8795 27.0114 50.2864 31.3051 46.846 34.3362C45.6234 35.1846 44.6543 35.5194 43.9387 35.3406C43.3031 35.1639 42.3602 34.4991 41.1099 33.346C40.1962 31.5615 39.8204 30.6314 39.9824 30.5556C40.1445 30.4798 40.3055 30.444 40.4654 30.4481C41.2082 29.5873 42.2917 27.935 43.7161 25.4914C45.2225 22.9699 46.2344 20.9957 46.7519 19.5687C47.0336 17.9755 47.2628 16.8612 47.4395 16.2256C47.6982 15.5121 47.8749 14.8765 47.9695 14.3188C48.0662 13.6811 48.1177 13.2423 48.124 13.0023C48.2123 12.6845 48.2607 12.3657 48.269 12.0458C48.3595 11.648 48.3678 11.3281 48.2941 11.0861C48.3004 10.8462 48.2667 10.6053 48.193 10.3632C48.2013 10.0434 47.9319 9.63618 47.3846 9.14171C46.9194 8.56935 45.5515 8.85369 43.2809 9.99474C41.3407 10.7443 38.8545 12.4799 35.8223 15.2016C32.7901 17.9233 30.0316 20.8922 27.5467 24.1083C20.3507 33.0433 15.8461 40.048 14.0329 45.1223L12.6318 48.2068C12.8382 49.4926 12.3103 51.3194 11.048 53.6873C9.54211 59.2498 8.87384 64.9143 9.04319 70.6807C9.29251 76.4492 10.3139 80.2371 12.1072 82.0446C14.0689 83.5364 18.4452 82.9706 25.2361 80.3472C26.3662 79.9766 28.3864 79.2291 31.2968 78.1048C34.2071 76.9805 36.686 75.5248 38.7334 73.7377C40.8525 72.2726 42.5517 71.5567 43.8313 71.5902C44.8814 71.2175 45.4854 71.0732 45.6432 71.1574C45.8811 71.2436 45.9916 71.6066 45.9749 72.2464Z" fill="#E8CC65"/>
</svg>
