<svg width="292" height="105" viewBox="0 0 292 105" fill="none" xmlns="http://www.w3.org/2000/svg">
<path opacity="0.6" d="M273.354 29.0833C272.324 29.2223 270.71 28.6327 268.515 27.3145L266.291 25.1928L264.542 27.4872C262.896 29.6467 261.376 33.0404 259.982 37.6683C258.578 42.2169 257.914 45.374 257.991 47.1396C258.067 48.9052 258.336 49.9991 258.797 50.4213C259.326 50.7535 259.913 50.9165 260.558 50.9102C261.271 50.8139 262.515 50.1618 264.29 48.9537C265.181 47.784 265.928 47.0374 266.53 46.714C267.72 46.5535 269.656 44.1531 272.34 39.5126C275.304 35.1571 276.37 31.9862 275.537 29.9997C275.505 29.7619 275.2 29.6011 274.624 29.5174C274.037 29.3545 273.614 29.2097 273.354 29.0833ZM285.679 19.9131C285.797 20.7852 286.252 21.1677 287.045 21.0608C287.928 21.0224 286.904 22.4117 283.974 25.2287C282.164 26.7646 281.24 27.6965 281.203 28.0243C281.156 28.2729 281.249 28.6639 281.483 29.1975C283.661 32.7784 282.559 37.7706 278.175 44.1742C273.872 50.567 269.027 54.4496 263.642 55.8219C262.02 56.3637 260.966 56.627 260.48 56.6119C260.072 56.5861 259.374 56.196 258.384 55.4415C256.522 54.8047 254.969 53.7631 253.725 52.3165C252.549 50.7799 251.954 49.3667 251.942 48.0768C251.727 42.2936 252.93 35.9558 255.552 29.0634C258.243 22.0809 261.252 17.7598 264.58 16.0999C268.182 14.0801 270.744 14.2189 272.264 16.5162C273.854 18.7235 273.819 20.2619 272.161 21.1315C271.288 21.2492 270.901 21.6648 270.997 22.3783C271.584 22.5413 273.198 22.2427 275.841 21.4826C278.483 20.7225 280.078 19.9826 280.627 19.2628C281.218 18.8601 282.17 18.7317 283.481 18.8777C284.871 19.013 285.604 19.3581 285.679 19.9131Z" fill="white"/>
<path opacity="0.6" d="M221.19 62.5182C219.506 60.808 218.319 59.1921 217.63 57.6707C217.009 56.0592 216.538 54.0643 216.217 51.6858C215.896 49.3074 215.826 46.6933 216.007 43.8436C216.524 36.9121 217.001 32.3675 217.437 30.21C217.557 29.3058 217.085 28.8043 216.023 28.7055C215.028 28.5167 213.863 28.5529 212.526 28.814C211.178 28.9958 210.374 29.0235 210.115 28.8971L209.543 28.2477C209.49 27.8513 209.278 27.4763 208.907 27.1227C208.605 26.6791 208.615 26.153 208.936 25.5446C209.327 24.8461 209.754 24.4252 210.219 24.2817C210.684 24.1383 211.461 23.9124 212.549 23.6041C213.717 23.2851 214.647 22.9981 215.339 22.7433C217.654 21.9467 219.201 20.85 219.981 19.4531C220.659 16.6978 221.571 13.5879 222.718 10.1234C223.855 6.57965 224.658 4.45321 225.127 3.74408C226.378 2.8487 227.332 2.43751 227.988 2.51051C228.633 2.50422 229.437 3.08184 230.401 4.24338C231.38 4.91854 231.781 5.79285 231.603 6.86629C231.562 7.75979 230.188 11.9409 227.483 19.4098C228.455 19.44 229.724 19.2688 231.288 18.8963C233.761 18.0784 235.925 17.6653 237.781 17.6571C241.19 17.1972 243.211 18.4179 243.845 21.3192C244.121 22.1699 244.032 22.7066 243.578 22.9294C243.123 23.1521 240.058 23.7675 234.382 24.7755C228.695 25.7042 225.833 26.3324 225.797 26.6602C225.079 27.3222 224.245 31.3095 223.294 38.6223C222.931 43.1112 222.95 47.1448 223.352 50.7232C223.754 54.3015 224.562 56.6951 225.774 57.9038C226.584 58.5211 227.953 58.4978 229.882 57.834C231.89 57.1595 233.63 55.9964 235.102 54.3447C236.654 52.6823 237.959 52.1833 239.017 52.8478C240.144 53.4223 240.064 54.9264 238.778 57.3602C237.651 59.7727 235.938 61.7393 233.641 63.2601C231.423 64.7702 229.33 65.4158 227.364 65.1968C225.465 64.8878 223.407 63.995 221.19 62.5182Z" fill="white"/>
<path opacity="0.6" d="M151.774 42.338C151.079 44.3692 150.565 47.1428 150.233 50.6588C149.889 54.0956 149.819 56.5672 150.022 58.0736C150.215 59.5006 150.462 60.436 150.764 60.8796C151.066 61.3232 151.341 61.5686 151.59 61.6158C151.838 61.663 152.24 61.6491 152.795 61.5742C156.521 61.0715 160.524 56.3338 164.802 47.3612C166.62 43.4833 167.492 41.2669 167.417 40.7119C167.342 40.1569 167.602 39.3953 168.198 38.4269C168.899 37.0407 169.693 36.0456 170.581 35.4416C171.468 34.8375 172.586 35.0499 173.936 36.0787C174.476 36.4902 174.885 37.7266 175.163 39.7879C174.959 41.2685 174.536 43.2225 173.895 45.65C173.243 47.9983 172.683 49.527 172.213 50.2361C170.867 51.6286 169.797 53.2664 169.001 55.1497C167.135 58.0655 165.779 59.9839 164.935 60.9051C164.09 61.8263 163.565 62.4218 163.359 62.6918C161.233 65.4811 158.791 67.4251 156.033 68.5237C153.344 69.5323 151.121 69.5093 149.364 68.4547C146.735 67.5178 145.218 65.543 144.811 62.5303L143.88 60.1132C142.69 60.2736 141.732 61.2505 141.006 63.0437C140.347 64.747 138.804 66.7715 136.376 69.1172C133.948 71.463 132.02 72.7321 130.593 72.9246C128.77 73.1706 127.055 71.8279 125.448 68.8963C123.831 65.8855 122.919 62.4163 122.712 58.4887C122.359 55.8724 122.255 53.3033 122.399 50.7814C122.622 48.2488 122.752 46.8186 122.789 46.4908C122.812 40.6755 123.337 37.0931 124.366 35.7434C124.825 34.955 125.614 34.5255 126.735 34.4551C129.135 34.2928 130.494 36.289 130.812 40.4437C130.996 43.0021 130.795 44.8051 130.21 45.8528C130.105 46.2706 130.061 48.335 130.077 52.0462C130.162 55.6673 130.184 57.9247 130.143 58.8182C130.1 61.4879 130.763 62.8112 132.132 62.7879C133.897 62.7112 136.119 60.0301 138.796 54.7446C141.553 49.4485 143.348 44.8068 144.183 40.8194C145.006 36.7528 145.635 34.5288 146.067 34.1475C147.229 33.1835 148.762 33.1785 150.667 34.1324C152.736 35.7099 153.105 38.4451 151.774 42.338Z" fill="white"/>
<path opacity="0.6" d="M105.127 53.5962C105.432 52.2635 105.4 50.5322 105.032 48.4023C104.733 46.1824 104.244 44.9567 103.567 44.7251C101.176 43.7561 98.6403 44.7037 95.9592 47.5679C92.455 51.5118 89.3435 58.0667 86.6246 67.2326C85.4945 71.4213 85.9878 74.1801 88.1045 75.509C90.7503 77.1702 94.4074 74.6586 99.0756 67.9745C101.961 63.6297 103.978 58.837 105.127 53.5962ZM82.0631 55.8603C86.1877 46.3434 91.6657 40.2765 98.4972 37.6596C100.098 36.9593 101.26 36.6006 101.985 36.5837C102.788 36.556 103.825 37.0619 105.095 38.1013C107.026 38.6481 108.462 39.423 109.405 40.426C110.427 41.4183 111.201 42.9687 111.728 45.0772C113.196 51.1756 112.012 57.9548 108.175 65.4148C106.705 68.2772 105.273 70.5288 103.88 72.1698C102.476 73.7315 100.573 75.4817 98.1704 77.4203C95.3565 79.8988 92.4196 81.4655 89.3597 82.1205C88.012 82.3024 86.3644 81.7578 84.4169 80.4867C80.9871 77.8012 79.3228 75.0389 79.4241 72.1999L79.2929 69.4326C78.843 69.0897 78.6813 68.7886 78.8078 68.5293C79.0136 68.2594 79.1507 68.0794 79.2193 67.9895C79.695 67.9253 79.8054 67.5471 79.5506 66.855C79.2851 66.0836 79.4043 64.5741 79.9083 62.3265C80.4016 59.9996 81.1199 57.8443 82.0631 55.8603Z" fill="white"/>
<path opacity="0.6" d="M64.8211 68.479L63.1571 79.4803C62.4674 88.1301 62.1386 92.574 62.1707 92.8119C61.8278 93.2617 60.5669 93.1897 58.3879 92.5957C56.6846 91.9375 55.6445 91.1092 55.2676 90.1106C54.9014 89.1913 54.8866 88.1842 55.2232 87.0894C55.6285 85.9046 56.3376 81.2883 57.3507 73.2406C57.9384 70.4167 58.5403 66.501 59.1563 61.4937C59.7723 56.4864 60.1489 53.8927 60.2861 53.7128L60.1256 52.5235C60.0722 52.1271 56.8002 52.4071 50.3098 53.3635C43.888 54.2299 38.5343 55.2348 34.2487 56.378L25.5673 57.5493C25.2886 58.4749 24.5571 62.3273 23.3729 69.1065C22.2572 75.7957 21.5135 81.9504 21.1416 87.5706C20.759 93.1115 20.1011 98.407 19.1679 103.457C18.3216 103.168 17.4624 103.082 16.5903 103.199C15.3583 103.043 14.3503 102.452 13.5663 101.428C12.8723 100.472 12.5983 99.3385 12.7443 98.0272C13.2929 97.3074 13.4068 95.7583 13.086 93.3798C13.3754 92.5335 13.5868 90.8098 13.7202 88.2086C13.9222 85.5174 14.6166 79.8941 15.8033 71.3386C16.9901 62.7831 17.8235 58.1904 18.3036 57.5606L18.1271 56.2524C17.9667 55.0632 18.2369 53.7755 18.9379 52.3893C19.4098 49.9039 19.5869 48.2252 19.4693 47.3531C19.4693 47.3531 21.0143 41.4535 24.1045 29.6544L24.0243 29.0598C24.1614 28.8798 24.869 26.6452 26.147 22.3558C27.4142 17.9871 28.2741 15.0861 28.7265 13.6527C29.1789 12.2194 29.5262 11.2038 29.7685 10.6061C30.0001 9.92903 30.208 9.37626 30.3924 8.94776C30.5767 8.51926 30.6529 8.18609 30.6208 7.94825C31.1374 6.99058 32.0224 6.66937 33.2758 6.98461C34.5978 7.20988 35.6615 7.91398 36.4669 9.09691L37.9128 10.8392L34.7868 19.9793C32.5486 25.5283 31.4991 28.8182 31.6381 29.8489C30.4351 34.6932 29.6211 38.2338 29.1964 40.4707C28.851 42.6969 28.4574 44.5663 28.0157 46.0789C27.1322 49.1042 26.7065 50.7358 26.7386 50.9736C26.7065 50.7358 28.8654 50.2831 33.2152 49.6155C46.9995 47.675 54.6288 46.4843 56.1031 46.0432L62.2068 44.6143L67.6481 14.9403C68.3774 11.3707 69.0346 9.06214 69.6198 8.01449C70.1943 6.88756 70.8383 6.27596 71.5518 6.17969C72.2654 6.08343 73.0056 6.18537 73.7727 6.48551C74.6083 6.69567 75.1824 7.06219 75.4952 7.58507C77.5433 9.00397 77.6766 11.4885 75.8953 15.0385C74.9263 17.4295 74.1243 20.1613 73.4894 23.2338C72.9338 26.2955 72.5402 28.1649 72.3087 28.842C72.5333 30.5069 72.4056 31.6543 71.9255 32.2841C71.4454 32.914 70.9426 34.2734 70.4172 36.3624C69.8811 38.3721 69.6826 39.8923 69.8216 40.923C69.95 41.8744 69.6713 42.7999 68.9854 43.6997C67.0864 56.549 65.6983 64.8088 64.8211 68.479Z" fill="white"/>
</svg>
