<svg width="123" height="27" viewBox="0 0 123 27" fill="none" xmlns="http://www.w3.org/2000/svg">
<path d="M50.5481 6.65706V6.78663C50.2242 11.6777 48.4427 17.9292 46.5964 22.4964C46.3697 23.1119 46.0781 23.8569 45.7218 24.4075C45.4951 24.7314 45.2684 24.8934 44.8473 24.8934C44.329 24.8934 43.8755 24.5047 43.8755 23.954C43.8755 23.7921 43.9403 23.6301 44.0051 23.4682C45.9162 19.6136 47.1471 14.6253 47.9568 10.4145C48.1188 9.53989 48.2808 8.69771 48.4103 7.82315C48.4751 7.36967 48.5075 6.94858 48.6047 6.52749C48.7018 6.04162 49.0581 5.68532 49.5764 5.68532C50.1271 5.68532 50.5805 6.1388 50.5481 6.65706ZM42.3207 4.42206C42.3207 4.61641 42.256 4.77836 42.1588 4.94032C40.8307 7.11054 39.9238 10.7708 39.9238 13.2973C39.9238 13.6536 39.9238 13.9775 39.9886 14.3014C40.3449 14.0099 40.7984 13.4916 41.2842 13.4916C41.8349 13.4916 42.2884 13.9127 42.2884 14.4634C42.2884 14.7225 42.1588 15.014 41.9644 15.176C41.3814 15.6619 40.2153 16.7308 39.4703 16.7308C38.1747 16.7308 38.0127 14.1395 38.0127 13.2325C38.0127 10.6736 39.0492 6.00923 40.5392 3.87141C40.7336 3.61227 41.0251 3.45032 41.349 3.45032C41.8673 3.45032 42.3207 3.87141 42.3207 4.42206Z" fill="#775E49"/>
<path d="M24.6993 9.57226C24.6993 10.1229 24.2782 10.5116 23.7275 10.5116C23.4036 10.5116 21.5897 9.70182 20.9419 9.57226C20.4884 9.47508 20.0997 9.11878 20.0997 8.63291C20.0997 8.11464 20.5208 7.66117 21.039 7.66117C21.5573 7.66117 23.8247 8.47095 24.2458 8.76247C24.5049 8.95682 24.6993 9.21595 24.6993 9.57226ZM17.7999 3.22355C17.7999 4.5516 14.5932 4.87551 13.6214 4.87551C12.5849 4.87551 11.5808 4.71355 10.5766 4.48681C8.8275 8.04986 5.23206 13.9775 2.15488 16.4068C1.99293 16.5364 1.76619 16.6012 1.57184 16.6012C1.02119 16.6012 0.600098 16.1801 0.600098 15.6294C0.600098 15.3379 0.729663 15.1112 0.956403 14.9168C4.09836 12.1312 6.85163 7.66117 8.73032 3.90377C8.0501 3.64464 7.24032 3.32073 6.65728 2.86725C6.39815 2.6729 6.23619 2.41377 6.23619 2.08986C6.23619 1.57159 6.65728 1.11811 7.17554 1.11811C7.40228 1.11811 7.53184 1.1829 7.6938 1.28007C8.30924 1.63638 8.89228 1.9279 9.54011 2.18703C9.83163 1.57159 9.99359 0.599854 10.8358 0.599854C11.354 0.599854 11.7751 1.02094 11.7751 1.50681C11.7751 1.79833 11.516 2.44616 11.3864 2.70529C12.1314 2.86725 12.9088 2.96442 13.6538 2.96442C14.6579 2.96442 15.5001 2.80247 16.4071 2.38138C16.569 2.31659 16.6986 2.2842 16.8606 2.2842C17.3788 2.2842 17.7999 2.70529 17.7999 3.22355ZM20.8771 22.4964C20.8771 23.0147 20.4236 23.4681 19.9053 23.4681C19.4195 23.4681 19.0956 23.1442 18.966 22.6907C18.6097 21.4599 18.2534 20.5853 17.2169 19.7755C16.9901 22.6907 15.3705 25.1525 12.1962 25.1525C9.63728 25.1525 8.30924 23.1766 8.30924 20.7797C8.30924 17.994 10.8682 16.504 13.3947 16.504C14.0425 16.504 14.6903 16.6012 15.3382 16.7631C15.3705 14.7873 15.5001 9.92856 17.1845 8.60051C17.3788 8.47095 17.5408 8.37378 17.7999 8.37378C18.3182 8.37378 18.7392 8.79486 18.7392 9.31312C18.7392 9.63704 18.6421 9.799 18.4153 10.0257C17.2169 11.289 17.2169 15.8562 17.2169 17.5081C19.1279 18.5123 20.3912 20.1966 20.8447 22.3021C20.8447 22.3668 20.8771 22.4316 20.8771 22.4964ZM15.3382 18.739C14.7227 18.5447 14.0425 18.4151 13.3947 18.4151C11.9695 18.4151 10.2203 19.0953 10.2203 20.7797C10.2203 22.0753 10.7062 23.2414 12.1962 23.2414C14.8199 23.2414 15.3382 20.8444 15.3382 18.739Z" fill="#775E49"/>
<path fill-rule="evenodd" clip-rule="evenodd" d="M50.5469 6.78655V6.65698C50.5793 6.13872 50.1258 5.68524 49.5752 5.68524C49.0569 5.68524 48.7006 6.04155 48.6034 6.52742C48.5359 6.82024 48.4996 7.11306 48.462 7.41677C48.4455 7.54981 48.4288 7.68494 48.4091 7.82307C48.2971 8.57909 48.1609 9.31089 48.0214 10.0603C47.9995 10.1779 47.9776 10.2958 47.9556 10.4144C47.1458 14.6253 45.9149 19.6135 44.0039 23.4681C43.9391 23.63 43.8743 23.792 43.8743 23.954C43.8743 24.5046 44.3278 24.8933 44.846 24.8933C45.2671 24.8933 45.4939 24.7314 45.7206 24.4074C46.0769 23.8568 46.3684 23.1118 46.5952 22.4963C48.4415 17.9292 50.223 11.6776 50.5469 6.78655ZM47.1548 22.7125C46.93 23.3223 46.6196 24.1223 46.2242 24.7333L46.2183 24.7425L46.212 24.7514C46.0743 24.9482 45.9022 25.1466 45.6603 25.2889C45.4106 25.4358 45.1378 25.4932 44.846 25.4932C44.0371 25.4932 43.2745 24.8751 43.2745 23.954C43.2745 23.6728 43.3788 23.4142 43.4366 23.271C43.4402 23.262 43.4437 23.2534 43.4469 23.2453L43.4558 23.2231L43.4664 23.2016C45.3396 19.4237 46.5584 14.5028 47.3661 10.3036C47.3881 10.1847 47.4101 10.0667 47.4319 9.9495C47.5714 9.19992 47.7053 8.4805 47.8155 7.73688C47.8317 7.62326 47.8466 7.50261 47.8621 7.37774C47.9011 7.06361 47.9433 6.72283 48.0171 6.40053C48.1635 5.68782 48.727 5.08541 49.5752 5.08541C50.4281 5.08541 51.1898 5.78393 51.1467 6.67336V6.80639L51.1454 6.82619C50.8161 11.7999 49.0137 18.1118 47.1548 22.7125ZM42.1576 4.94024C42.2547 4.77829 42.3195 4.61633 42.3195 4.42198C42.3195 3.87133 41.866 3.45024 41.3478 3.45024C41.0239 3.45024 40.7323 3.6122 40.538 3.87133C39.048 6.00916 38.0115 10.6735 38.0115 13.2324C38.0115 14.1394 38.1734 16.7307 39.4691 16.7307C40.1324 16.7307 41.1295 15.8833 41.7517 15.3546C41.8283 15.2895 41.8993 15.2292 41.9632 15.1759C42.1576 15.014 42.2871 14.7224 42.2871 14.4633C42.2871 13.9126 41.8336 13.4916 41.283 13.4916C41.0198 13.4916 40.7662 13.6436 40.5323 13.8293C40.4221 13.9168 40.3163 14.0118 40.2159 14.1019C40.1361 14.1736 40.0597 14.2421 39.9873 14.3013C39.9387 14.0584 39.9266 13.8154 39.9236 13.5587C39.9226 13.4732 39.9226 13.3862 39.9226 13.2972C39.9226 10.7707 40.8295 7.11046 42.1576 4.94024ZM40.5241 13.1093C40.5677 10.6853 41.4389 7.26388 42.6692 5.25335L42.6719 5.24886C42.801 5.03375 42.9194 4.76382 42.9194 4.42198C42.9194 3.52712 42.1842 2.8504 41.3478 2.8504C40.8147 2.8504 40.353 3.11827 40.0581 3.51143L40.0518 3.51978L40.0459 3.52835C39.2385 4.68672 38.5856 6.47116 38.1346 8.24628C37.6812 10.0312 37.4116 11.8886 37.4116 13.2324C37.4116 13.7063 37.4527 14.6409 37.6747 15.4758C37.785 15.8904 37.9523 16.3296 38.2189 16.6769C38.4973 17.0395 38.9111 17.3305 39.4691 17.3305C39.7863 17.3305 40.0944 17.2206 40.352 17.0962C40.6181 16.9677 40.8829 16.7975 41.1263 16.623C41.5062 16.3507 41.8782 16.0345 42.1514 15.8022C42.2243 15.7403 42.2901 15.6843 42.3472 15.6367C42.6876 15.3531 42.887 14.8881 42.887 14.4633C42.887 13.556 42.1389 12.8917 41.283 12.8917C40.9925 12.8917 40.7352 12.99 40.5241 13.1093Z" fill="#775E49"/>
<path fill-rule="evenodd" clip-rule="evenodd" d="M20.8159 10.1588L20.8159 10.1588C20.1701 10.0204 19.4996 9.47965 19.4996 8.63289C19.4996 7.80995 20.1632 7.06131 21.0388 7.06131C21.262 7.06131 21.5772 7.13641 21.8586 7.21395C22.1672 7.29898 22.5256 7.41375 22.8763 7.53616C23.2273 7.6587 23.5778 7.79148 23.8709 7.9139C24.1441 8.02804 24.4221 8.15515 24.587 8.26927L24.5963 8.27575L24.6054 8.28259C24.9528 8.54315 25.2988 8.96048 25.2988 9.57224C25.2988 10.4808 24.5819 11.1114 23.7273 11.1114C23.598 11.1114 23.4646 11.0775 23.3828 11.0551C23.2827 11.0277 23.1687 10.9908 23.0507 10.95C22.8144 10.8684 22.5277 10.7595 22.2427 10.6512C21.6382 10.4213 21.0853 10.2127 20.824 10.1604L20.8159 10.1588ZM16.1689 1.83046L16.184 1.82443C16.3938 1.74053 16.6006 1.68435 16.8603 1.68435C17.7098 1.68435 18.3995 2.374 18.3995 3.22354C18.3995 3.83351 18.0218 4.26217 17.6232 4.53622C17.2256 4.80957 16.7189 4.99616 16.2298 5.12699C15.2455 5.39033 14.1472 5.47534 13.6212 5.47534C12.6868 5.47534 11.7858 5.3511 10.9056 5.17128C10.0233 6.91837 8.76409 9.12325 7.36108 11.207C5.85152 13.4489 4.14178 15.6018 2.52781 16.8764C2.24213 17.1043 1.87722 17.201 1.57158 17.201C0.689644 17.201 0 16.5114 0 15.6294C0 15.1263 0.236546 14.7451 0.561654 14.4649C3.45723 11.8963 6.04452 7.82009 7.8971 4.21992C7.35565 3.99501 6.76602 3.71107 6.29224 3.34343C5.921 3.0632 5.63609 2.64159 5.63609 2.08984C5.63609 1.2669 6.29975 0.518261 7.17528 0.518261C7.55659 0.518261 7.79658 0.64262 7.99796 0.763182C8.4104 1.00183 8.80488 1.20871 9.21397 1.39541C9.27949 1.23033 9.35915 1.04275 9.45997 0.865746C9.6974 0.448917 10.1119 0 10.8355 0C11.6713 0 12.3747 0.676102 12.3747 1.5068C12.3747 1.74266 12.2923 2.0307 12.2182 2.24967C12.7018 2.32351 13.1865 2.36457 13.6535 2.36457C14.5814 2.36457 15.3358 2.21729 16.1542 1.8373L16.1689 1.83046ZM11.6207 2.1419C11.5415 2.3644 11.4487 2.58015 11.3862 2.70528C11.5869 2.74892 11.7901 2.78787 11.9943 2.82147C12.5478 2.91255 13.1093 2.96441 13.6535 2.96441C14.6577 2.96441 15.4999 2.80245 16.4068 2.38136C16.5688 2.31658 16.6983 2.28419 16.8603 2.28419C17.3786 2.28419 17.7996 2.70528 17.7996 3.22354C17.7996 4.55158 14.5929 4.8755 13.6212 4.8755C12.5846 4.8755 11.5805 4.71354 10.5764 4.4868C8.82724 8.04985 5.2318 13.9775 2.15462 16.4068C1.99267 16.5364 1.76593 16.6012 1.57158 16.6012C1.02093 16.6012 0.59984 16.1801 0.59984 15.6294C0.59984 15.3379 0.729405 15.1112 0.956144 14.9168C3.9494 12.263 6.58989 8.08049 8.4575 4.44178C8.55028 4.26101 8.64115 4.08159 8.73006 3.90376C8.55012 3.83521 8.36111 3.76212 8.16962 3.6833C7.63727 3.46418 7.08582 3.20075 6.65702 2.86723C6.39789 2.67289 6.23593 2.41375 6.23593 2.08984C6.23593 1.57158 6.65702 1.1181 7.17528 1.1181C7.40202 1.1181 7.53159 1.18288 7.69354 1.28006C8.30898 1.63636 8.89202 1.92789 9.53985 2.18701C9.59873 2.06271 9.65232 1.92387 9.70731 1.78143C9.92454 1.21868 10.1634 0.59984 10.8355 0.59984C11.3538 0.59984 11.7749 1.02093 11.7749 1.5068C11.7749 1.65755 11.7056 1.9036 11.6207 2.1419ZM16.8316 8.11466L16.8515 8.1014C17.0627 7.96056 17.352 7.77392 17.7996 7.77392C18.6492 7.77392 19.3388 8.46357 19.3388 9.31311C19.3388 9.53895 19.3042 9.75486 19.2025 9.96608C19.1074 10.1636 18.9725 10.316 18.8457 10.4434C18.6541 10.6484 18.4624 11.0481 18.3018 11.6501C18.1449 12.2381 18.0366 12.9436 17.9633 13.6805C17.8357 14.9636 17.819 16.2879 17.8168 17.1551C19.7085 18.2594 20.9663 20.0189 21.4308 22.1757L21.4443 22.2382V22.2606C21.4483 22.2766 21.4554 22.3058 21.4613 22.3373C21.4686 22.3759 21.4767 22.4312 21.4767 22.4964C21.4767 23.3459 20.7546 24.068 19.9051 24.068C19.0842 24.068 18.5722 23.4957 18.3892 22.8564C18.1737 22.112 17.9713 21.549 17.6325 21.0621C17.3938 22.1436 16.9481 23.1436 16.2693 23.9449C15.3233 25.0616 13.9563 25.7523 12.1959 25.7523C10.7465 25.7523 9.60106 25.1851 8.82935 24.2457C8.06958 23.3207 7.70914 22.0823 7.70914 20.7796C7.70914 19.1796 8.45305 17.9404 9.54305 17.1183C10.6185 16.3071 12.0222 15.9041 13.3944 15.9041C13.852 15.9041 14.3055 15.9485 14.7537 16.0261C14.7813 15.0241 14.849 13.6639 15.0485 12.3489C15.1752 11.5137 15.3581 10.676 15.6272 9.94984C15.8921 9.23521 16.2648 8.56152 16.8128 8.12946L16.8316 8.11466ZM15.3505 16.1488C15.4073 13.9222 15.655 9.80623 17.1842 8.6005C17.3786 8.47093 17.5405 8.37376 17.7996 8.37376C18.3179 8.37376 18.739 8.79485 18.739 9.31311C18.739 9.63702 18.6418 9.79898 18.4151 10.0257C17.2166 11.289 17.2166 15.8562 17.2166 17.5081C19.1277 18.5123 20.3909 20.1966 20.8444 22.302C20.8444 22.3344 20.8525 22.3668 20.8606 22.3992C20.8687 22.4316 20.8768 22.464 20.8768 22.4964C20.8768 23.0146 20.4233 23.4681 19.9051 23.4681C19.4192 23.4681 19.0953 23.1442 18.9657 22.6907C18.6815 21.709 18.3974 20.954 17.7681 20.2776C17.6083 20.106 17.4264 19.9394 17.2166 19.7755C17.1978 20.017 17.1695 20.2553 17.1315 20.4894C16.7109 23.0816 15.1074 25.1525 12.1959 25.1525C9.63702 25.1525 8.30898 23.1766 8.30898 20.7796C8.30898 17.994 10.8679 16.504 13.3944 16.504C13.843 16.504 14.2916 16.5506 14.7402 16.633C14.9394 16.6696 15.1387 16.7133 15.3379 16.7631C15.3409 16.5811 15.3447 16.3747 15.3505 16.1488ZM14.7292 19.1905C14.2846 19.0807 13.8265 19.0149 13.3944 19.0149C12.7628 19.0149 12.086 19.1681 11.5883 19.4759C11.1122 19.7703 10.8199 20.1858 10.8199 20.7796C10.8199 21.3687 10.9331 21.8464 11.1456 22.1596C11.333 22.4358 11.6338 22.6415 12.1959 22.6415C12.7575 22.6415 13.1693 22.5144 13.4788 22.3235C13.7894 22.1318 14.0324 21.8539 14.2209 21.4986C14.5511 20.8762 14.6941 20.054 14.7292 19.1905ZM15.3379 18.739C14.7225 18.5446 14.0422 18.4151 13.3944 18.4151C11.9692 18.4151 10.2201 19.0953 10.2201 20.7796C10.2201 22.0753 10.7059 23.2414 12.1959 23.2414C14.8196 23.2414 15.3379 20.8444 15.3379 18.739ZM23.7273 10.5116C24.2779 10.5116 24.699 10.1229 24.699 9.57224C24.699 9.21594 24.5046 8.95681 24.2455 8.76246C23.8244 8.47093 21.557 7.66115 21.0388 7.66115C20.5205 7.66115 20.0994 8.11463 20.0994 8.63289C20.0994 9.11876 20.4881 9.47507 20.9416 9.57224C21.2612 9.63616 21.8646 9.86565 22.4329 10.0818C23.0166 10.3037 23.5631 10.5116 23.7273 10.5116Z" fill="#775E49"/>
<path d="M111.296 10.4012V22.4651C111.296 25.3732 109.856 26.4961 107.351 26.4961C106.689 26.4961 105.94 26.4673 105.134 26.3233C104.213 26.1506 103.781 25.4308 103.781 24.6822C103.781 23.732 104.472 22.7819 105.71 22.9834C106.257 23.0698 106.603 23.0986 106.948 23.0986C107.582 23.0986 107.841 22.897 107.841 22.0621V10.4012H99.4909C98.5696 10.4012 98.1089 9.62378 98.1089 8.87518C98.1089 8.09779 98.5696 7.34919 99.4909 7.34919H107.841V3.05913C107.841 2.0802 108.733 1.59073 109.597 1.59073C110.461 1.59073 111.296 2.05141 111.296 3.00155V7.34919H119.53C120.452 7.34919 120.912 8.09779 120.912 8.87518C120.912 9.62378 120.452 10.4012 119.53 10.4012H111.296ZM119.502 0.352661C121.229 0.352661 122.582 1.7059 122.582 3.43343C122.582 5.18976 121.229 6.543 119.502 6.543C117.745 6.543 116.392 5.18976 116.392 3.43343C116.392 1.7059 117.745 0.352661 119.502 0.352661ZM119.502 5.10339C120.423 5.10339 121.143 4.35479 121.143 3.43343C121.143 2.51208 120.423 1.79227 119.502 1.79227C118.58 1.79227 117.832 2.51208 117.832 3.43343C117.832 4.35479 118.58 5.10339 119.502 5.10339ZM117.601 14.0866C118.321 15.555 119.703 17.7144 120.797 19.0389C121.172 19.4995 121.344 19.9602 121.344 20.3633C121.344 21.3135 120.509 22.0333 119.617 22.0333C119.07 22.0333 118.465 21.7741 118.004 21.1407C116.881 19.6435 115.355 17.1386 114.549 15.3247C114.434 15.0655 114.377 14.8064 114.377 14.5761C114.377 13.6547 115.183 13.1077 116.018 13.1077C116.651 13.1077 117.256 13.3956 117.601 14.0866ZM101.334 14.173C101.65 13.4532 102.255 13.1364 102.888 13.1364C103.723 13.1364 104.558 13.7411 104.558 14.6912C104.558 14.9216 104.53 15.1519 104.414 15.411C103.493 17.6856 102.053 19.8738 100.297 21.6302C99.8652 22.0621 99.3757 22.2348 98.9439 22.2348C98.0225 22.2348 97.2451 21.515 97.2451 20.68C97.2451 20.2481 97.4179 19.8163 97.8498 19.4132C99.2894 18.0023 100.47 16.1596 101.334 14.173Z" fill="#775E49"/>
<path d="M71.8454 11.1786V16.1885C71.8454 17.1386 71.0105 17.5993 70.1755 17.5993C69.3405 17.5993 68.5055 17.1386 68.5055 16.1885V11.1786H64.0715C63.2077 11.1786 62.7471 10.4588 62.7471 9.73902C62.7471 9.01921 63.2077 8.2994 64.0715 8.2994H68.5055V3.57746C68.5055 2.59852 69.3405 2.13785 70.1755 2.13785C71.0105 2.13785 71.8454 2.59852 71.8454 3.57746V8.2994H78.3525V3.17437C78.3525 2.22423 79.1875 1.76355 80.0225 1.76355C80.8574 1.76355 81.6924 2.22423 81.6924 3.17437V8.2994H86.7311C87.6236 8.2994 88.0555 9.01921 88.0555 9.73902C88.0555 10.4588 87.6236 11.1786 86.7311 11.1786H81.6924V12.0712C81.6924 19.0677 78.4965 23.6745 73.2563 26.0355C72.9971 26.1506 72.738 26.2082 72.4789 26.2082C71.5287 26.2082 70.8665 25.4308 70.8665 24.5958C70.8665 24.02 71.1544 23.4441 71.9318 23.0698C76.1931 21.0256 78.3525 17.8297 78.3525 11.8409V11.1786H71.8454Z" fill="#775E49"/>
</svg>
