<svg width="158" height="35" viewBox="0 0 158 35" fill="none" xmlns="http://www.w3.org/2000/svg">
<path d="M65.0044 8.60974V8.77637C64.5879 15.0664 62.2968 23.1059 59.9224 28.9793C59.6308 29.7708 59.2559 30.7289 58.7977 31.437C58.5061 31.8536 58.2146 32.0618 57.673 32.0618C57.0065 32.0618 56.4234 31.562 56.4234 30.8538C56.4234 30.6456 56.5067 30.4373 56.59 30.229C59.0477 25.272 60.6306 18.857 61.672 13.4418C61.8802 12.3171 62.0885 11.234 62.2551 10.1093C62.3385 9.52617 62.3801 8.98464 62.5051 8.44312C62.63 7.81829 63.0883 7.36008 63.7547 7.36008C64.4629 7.36008 65.0461 7.94325 65.0044 8.60974ZM54.4239 5.73551C54.4239 5.98544 54.3406 6.19372 54.2156 6.402C52.5077 9.19292 51.3414 13.9 51.3414 17.1491C51.3414 17.6074 51.3414 18.0239 51.4247 18.4405C51.8829 18.0656 52.4661 17.3991 53.0909 17.3991C53.7991 17.3991 54.3822 17.9406 54.3822 18.6487C54.3822 18.982 54.2156 19.3569 53.9657 19.5652C53.2159 20.19 51.7163 21.5646 50.7582 21.5646C49.092 21.5646 48.8837 18.2322 48.8837 17.0658C48.8837 13.775 50.2167 7.77663 52.1328 5.02736C52.3828 4.69412 52.7577 4.48584 53.1742 4.48584C53.8407 4.48584 54.4239 5.02736 54.4239 5.73551Z" fill="#E5D8C5"/>
<path d="M31.7632 12.3588C31.7632 13.0669 31.2216 13.5668 30.5135 13.5668C30.0969 13.5668 27.7642 12.5254 26.9311 12.3588C26.3479 12.2338 25.8481 11.7756 25.8481 11.1508C25.8481 10.4843 26.3896 9.90111 27.0561 9.90111C27.7226 9.90111 30.6385 10.9425 31.18 11.3174C31.5132 11.5673 31.7632 11.9006 31.7632 12.3588ZM22.8905 4.19429C22.8905 5.90217 18.7666 6.31873 17.5169 6.31873C16.184 6.31873 14.8926 6.11045 13.6013 5.81886C11.3519 10.401 6.72814 18.024 2.77086 21.1481C2.56258 21.3147 2.27099 21.3981 2.02106 21.3981C1.31292 21.3981 0.771393 20.8565 0.771393 20.1484C0.771393 19.7735 0.938015 19.4819 1.2296 19.232C5.2702 15.6496 8.81092 9.90111 11.2269 5.06906C10.3522 4.73582 9.31079 4.31926 8.56099 3.73608C8.22774 3.48615 8.01947 3.1529 8.01947 2.73635C8.01947 2.06986 8.56099 1.48668 9.22748 1.48668C9.51907 1.48668 9.68569 1.56999 9.89397 1.69496C10.6854 2.15317 11.4352 2.52807 12.2683 2.86131C12.6432 2.06986 12.8515 0.82019 13.9346 0.82019C14.6011 0.82019 15.1426 1.36171 15.1426 1.98655C15.1426 2.36145 14.8093 3.19456 14.6427 3.5278C15.6008 3.73608 16.6005 3.86105 17.5586 3.86105C18.8499 3.86105 19.933 3.65277 21.0993 3.11125C21.3076 3.02794 21.4742 2.98628 21.6825 2.98628C22.349 2.98628 22.8905 3.5278 22.8905 4.19429ZM26.8478 28.9794C26.8478 29.6459 26.2646 30.229 25.5981 30.229C24.9733 30.229 24.5567 29.8125 24.3901 29.2293C23.9319 27.6464 23.4737 26.5217 22.1407 25.4803C21.8491 29.2293 19.7663 32.3951 15.6841 32.3951C12.3933 32.3951 10.6854 29.8541 10.6854 26.7716C10.6854 23.1892 13.9762 21.2731 17.2254 21.2731C18.0585 21.2731 18.8916 21.3981 19.7247 21.6063C19.7663 19.0653 19.933 12.817 22.0991 11.1091C22.349 10.9425 22.5573 10.8175 22.8905 10.8175C23.557 10.8175 24.0985 11.3591 24.0985 12.0255C24.0985 12.4421 23.9736 12.6504 23.682 12.942C22.1407 14.5665 22.1407 20.44 22.1407 22.5644C24.5984 23.8557 26.223 26.0218 26.8061 28.7294C26.8061 28.8127 26.8478 28.8961 26.8478 28.9794ZM19.7247 24.1473C18.9332 23.8974 18.0585 23.7308 17.2254 23.7308C15.3925 23.7308 13.1431 24.6055 13.1431 26.7716C13.1431 28.4378 13.7679 29.9374 15.6841 29.9374C19.0582 29.9374 19.7247 26.8549 19.7247 24.1473Z" fill="#E5D8C5"/>
<path fill-rule="evenodd" clip-rule="evenodd" d="M65.0044 8.7764V8.60978C65.0461 7.94329 64.4629 7.36011 63.7548 7.36011C63.0883 7.36011 62.6301 7.81832 62.5051 8.44316C62.4182 8.81973 62.3716 9.1963 62.3232 9.58688C62.302 9.75796 62.2805 9.93174 62.2552 10.1094C62.1111 11.0816 61.936 12.0227 61.7566 12.9865C61.7284 13.1377 61.7002 13.2894 61.672 13.4418C60.6306 18.8571 59.0477 25.272 56.59 30.229C56.5067 30.4373 56.4234 30.6456 56.4234 30.8539C56.4234 31.562 57.0065 32.0619 57.673 32.0619C58.2146 32.0619 58.5062 31.8536 58.7977 31.437C59.256 30.7289 59.6309 29.7708 59.9224 28.9794C62.2968 23.1059 64.5879 15.0664 65.0044 8.7764ZM60.6421 29.2574C60.353 30.0415 59.9538 31.0703 59.4454 31.8561L59.4377 31.8679L59.4297 31.8794C59.2526 32.1324 59.0312 32.3876 58.7202 32.5706C58.3991 32.7595 58.0483 32.8333 57.673 32.8333C56.6327 32.8333 55.652 32.0384 55.652 30.8539C55.652 30.4923 55.7862 30.1597 55.8605 29.9756C55.8652 29.964 55.8696 29.953 55.8738 29.9425L55.8852 29.914L55.8989 29.8864C58.3077 25.0279 59.8752 18.6995 60.9138 13.2994C60.9422 13.1465 60.9704 12.9947 60.9984 12.844C61.1778 11.88 61.35 10.9548 61.4918 9.99853C61.5126 9.85243 61.5318 9.69726 61.5518 9.53668C61.6018 9.1327 61.6562 8.69446 61.7511 8.27998C61.9393 7.36342 62.664 6.58871 63.7548 6.58871C64.8517 6.58871 65.8312 7.48702 65.7758 8.63084V8.80192L65.7741 8.82738C65.3505 15.2236 63.0327 23.3408 60.6421 29.2574ZM54.2156 6.40204C54.3406 6.19376 54.4239 5.98548 54.4239 5.73554C54.4239 5.0274 53.8407 4.48588 53.1742 4.48588C52.7577 4.48588 52.3828 4.69416 52.1328 5.0274C50.2167 7.77667 48.8837 13.7751 48.8837 17.0659C48.8837 18.2322 49.092 21.5647 50.7582 21.5647C51.6112 21.5647 52.8935 20.475 53.6937 19.795C53.7922 19.7112 53.8835 19.6337 53.9657 19.5652C54.2156 19.3569 54.3822 18.982 54.3822 18.6488C54.3822 17.9406 53.7991 17.3991 53.0909 17.3991C52.7525 17.3991 52.4263 17.5946 52.1255 17.8335C51.9838 17.946 51.8477 18.0682 51.7187 18.184C51.616 18.2762 51.5178 18.3644 51.4247 18.4405C51.3622 18.128 51.3466 17.8156 51.3427 17.4855C51.3414 17.3756 51.3414 17.2637 51.3414 17.1492C51.3414 13.9 52.5077 9.19296 54.2156 6.40204ZM52.115 16.9075C52.171 13.7902 53.2914 9.39025 54.8736 6.80469L54.8771 6.79892C55.0431 6.52229 55.1953 6.17516 55.1953 5.73554C55.1953 4.58475 54.2499 3.71448 53.1742 3.71448C52.4888 3.71448 51.8949 4.05896 51.5157 4.56456L51.5077 4.5753L51.5 4.58632C50.4617 6.076 49.622 8.3708 49.0421 10.6536C48.4589 12.949 48.1123 15.3377 48.1123 17.0659C48.1123 17.6753 48.1651 18.8772 48.4506 19.9509C48.5924 20.4841 48.8076 21.0488 49.1505 21.4955C49.5085 21.9619 50.0407 22.3361 50.7582 22.3361C51.1662 22.3361 51.5624 22.1947 51.8936 22.0347C52.2358 21.8695 52.5765 21.6506 52.8895 21.4262C53.378 21.076 53.8564 20.6693 54.2078 20.3706C54.3015 20.291 54.3861 20.219 54.4595 20.1578C54.8972 19.7931 55.1536 19.195 55.1536 18.6488C55.1536 17.4819 54.1917 16.6277 53.0909 16.6277C52.7173 16.6277 52.3865 16.7541 52.115 16.9075Z" fill="#E5D8C5"/>
<path fill-rule="evenodd" clip-rule="evenodd" d="M26.7695 13.1132L26.7695 13.1131C25.939 12.9351 25.0767 12.2397 25.0767 11.1508C25.0767 10.0925 25.9301 9.12975 27.0561 9.12975C27.3431 9.12975 27.7486 9.22633 28.1104 9.32604C28.5072 9.43539 28.9682 9.58298 29.4192 9.74041C29.8705 9.898 30.3214 10.0688 30.6982 10.2262C31.0496 10.373 31.4071 10.5364 31.6191 10.6832L31.6311 10.6915L31.6428 10.7003C32.0896 11.0354 32.5346 11.5721 32.5346 12.3588C32.5346 13.5272 31.6126 14.3382 30.5135 14.3382C30.3472 14.3382 30.1758 14.2946 30.0706 14.2658C29.9418 14.2306 29.7951 14.1831 29.6434 14.1307C29.3395 14.0258 28.9708 13.8857 28.6043 13.7463C27.827 13.4507 27.1159 13.1825 26.7798 13.1152L26.7695 13.1132ZM20.7934 2.40282L20.8128 2.39506C21.0826 2.28717 21.3485 2.21492 21.6825 2.21492C22.775 2.21492 23.6619 3.10181 23.6619 4.19433C23.6619 4.97877 23.1763 5.53002 22.6637 5.88245C22.1523 6.23398 21.5006 6.47394 20.8717 6.64219C19.6059 6.98085 18.1934 7.09017 17.5169 7.09017C16.3153 7.09017 15.1566 6.9304 14.0247 6.69915C12.89 8.94593 11.2707 11.7814 9.46642 14.4611C7.52512 17.3443 5.32638 20.1128 3.25078 21.7521C2.8834 22.0451 2.41412 22.1695 2.02107 22.1695C0.88689 22.1695 0 21.2826 0 20.1484C0 19.5013 0.304201 19.0111 0.722292 18.6509C4.44603 15.3476 7.77331 10.1055 10.1557 5.47568C9.45944 5.18646 8.70117 4.8213 8.09189 4.34851C7.61447 3.98813 7.24807 3.44594 7.24807 2.73639C7.24807 1.67807 8.10154 0.715317 9.22749 0.715317C9.71786 0.715317 10.0265 0.875244 10.2855 1.03029C10.8159 1.33719 11.3232 1.60324 11.8493 1.84334C11.9335 1.63105 12.036 1.38981 12.1656 1.16219C12.471 0.62614 13.004 0.0488281 13.9346 0.0488281C15.0095 0.0488281 15.914 0.918302 15.914 1.98658C15.914 2.28991 15.808 2.66033 15.7128 2.94192C16.3346 3.03689 16.958 3.08969 17.5586 3.08969C18.7518 3.08969 19.722 2.90029 20.7745 2.41162L20.7934 2.40282ZM14.9443 2.80333C14.8425 3.08947 14.7232 3.36693 14.6427 3.52784C14.9009 3.58397 15.1621 3.63405 15.4248 3.67726C16.1366 3.7944 16.8587 3.86109 17.5586 3.86109C18.8499 3.86109 19.933 3.65281 21.0993 3.11129C21.3076 3.02797 21.4742 2.98632 21.6825 2.98632C22.349 2.98632 22.8905 3.52784 22.8905 4.19433C22.8905 5.90221 18.7666 6.31877 17.5169 6.31877C16.184 6.31877 14.8926 6.11049 13.6013 5.8189C11.3519 10.401 6.72815 18.024 2.77087 21.1482C2.56259 21.3148 2.271 21.3981 2.02107 21.3981C1.31292 21.3981 0.7714 20.8566 0.7714 20.1484C0.7714 19.7735 0.938022 19.4819 1.22961 19.232C5.07897 15.8192 8.47466 10.4404 10.8764 5.761C10.9957 5.52853 11.1126 5.29779 11.227 5.0691C10.9955 4.98094 10.7525 4.88695 10.5062 4.78559C9.82161 4.5038 9.11244 4.16502 8.561 3.73612C8.22775 3.48619 8.01947 3.15294 8.01947 2.73639C8.01947 2.0699 8.561 1.48672 9.22749 1.48672C9.51907 1.48672 9.6857 1.57003 9.89397 1.69499C10.6854 2.15321 11.4352 2.52811 12.2683 2.86135C12.3441 2.70149 12.413 2.52294 12.4837 2.33977C12.7631 1.61606 13.0703 0.820228 13.9346 0.820228C14.6011 0.820228 15.1426 1.36175 15.1426 1.98658C15.1426 2.18046 15.0535 2.49688 14.9443 2.80333ZM21.6456 10.4844L21.6712 10.4673C21.9429 10.2862 22.3149 10.0462 22.8905 10.0462C23.983 10.0462 24.8699 10.9331 24.8699 12.0256C24.8699 12.316 24.8254 12.5937 24.6946 12.8653C24.5723 13.1194 24.3989 13.3153 24.2358 13.4791C23.9894 13.7428 23.7429 14.2568 23.5363 15.031C23.3345 15.7871 23.1953 16.6944 23.101 17.6421C22.9369 19.2922 22.9154 20.9952 22.9125 22.1104C25.3454 23.5306 26.9628 25.7933 27.5603 28.5671L27.5775 28.6473V28.6762C27.5827 28.6967 27.5919 28.7343 27.5995 28.7748C27.6088 28.8245 27.6192 28.8956 27.6192 28.9794C27.6192 30.0719 26.6907 31.0005 25.5981 31.0005C24.5425 31.0005 23.884 30.2646 23.6487 29.4424C23.3715 28.4851 23.1112 27.7611 22.6756 27.1349C22.3687 28.5257 21.7954 29.8118 20.9225 30.8422C19.706 32.2784 17.948 33.1666 15.6841 33.1666C13.8201 33.1666 12.3471 32.4372 11.3546 31.229C10.3776 30.0395 9.91403 28.4469 9.91403 26.7717C9.91403 24.714 10.8707 23.1204 12.2725 22.0631C13.6556 21.02 15.4607 20.5017 17.2254 20.5017C17.8138 20.5017 18.397 20.5588 18.9733 20.6586C19.0089 19.3699 19.0959 17.6207 19.3525 15.9296C19.5155 14.8556 19.7507 13.7782 20.0968 12.8444C20.4375 11.9254 20.9168 11.059 21.6214 10.5034L21.6456 10.4844ZM19.7408 20.8164C19.814 17.9529 20.1325 12.6597 22.0991 11.1092C22.349 10.9425 22.5573 10.8176 22.8905 10.8176C23.557 10.8176 24.0985 11.3591 24.0985 12.0256C24.0985 12.4421 23.9736 12.6504 23.682 12.942C22.1407 14.5666 22.1407 20.44 22.1407 22.5644C24.5984 23.8558 26.223 26.0219 26.8061 28.7295C26.8061 28.7711 26.8166 28.8128 26.827 28.8544C26.8374 28.8961 26.8478 28.9378 26.8478 28.9794C26.8478 29.6459 26.2646 30.2291 25.5981 30.2291C24.9733 30.2291 24.5567 29.8125 24.3901 29.2293C24.0247 27.9668 23.6592 26.9958 22.8499 26.1261C22.6445 25.9054 22.4105 25.6911 22.1407 25.4803C22.1166 25.7908 22.0801 26.0973 22.0313 26.3984C21.4904 29.732 19.4283 32.3952 15.6841 32.3952C12.3933 32.3952 10.6854 29.8542 10.6854 26.7717C10.6854 23.1893 13.9762 21.2731 17.2254 21.2731C17.8022 21.2731 18.3791 21.333 18.956 21.4391C19.2122 21.4861 19.4685 21.5423 19.7247 21.6064C19.7285 21.3723 19.7334 21.1069 19.7408 20.8164ZM18.9419 24.728C18.3702 24.5868 17.7811 24.5022 17.2254 24.5022C16.4131 24.5022 15.5427 24.6992 14.9027 25.095C14.2904 25.4737 13.9145 26.008 13.9145 26.7717C13.9145 27.5292 14.06 28.1435 14.3334 28.5463C14.5744 28.9015 14.9612 29.1661 15.6841 29.1661C16.4063 29.1661 16.9359 29.0026 17.3339 28.757C17.7334 28.5105 18.0459 28.1532 18.2882 27.6963C18.7129 26.8958 18.8968 25.8385 18.9419 24.728ZM19.7247 24.1474C18.9332 23.8974 18.0585 23.7308 17.2254 23.7308C15.3925 23.7308 13.1431 24.6056 13.1431 26.7717C13.1431 28.4379 13.7679 29.9375 15.6841 29.9375C19.0582 29.9375 19.7247 26.855 19.7247 24.1474ZM30.5135 13.5668C31.2216 13.5668 31.7632 13.067 31.7632 12.3588C31.7632 11.9006 31.5132 11.5674 31.18 11.3174C30.6385 10.9425 27.7226 9.90115 27.0561 9.90115C26.3896 9.90115 25.8481 10.4843 25.8481 11.1508C25.8481 11.7756 26.3479 12.2339 26.9311 12.3588C27.3421 12.441 28.1181 12.7362 28.849 13.0141C29.5995 13.2995 30.3024 13.5668 30.5135 13.5668Z" fill="#E5D8C5"/>
<path d="M143.127 13.4248V28.9392C143.127 32.6789 141.276 34.123 138.054 34.123C137.203 34.123 136.24 34.086 135.203 33.9008C134.019 33.6787 133.463 32.753 133.463 31.7903C133.463 30.5684 134.352 29.3465 135.944 29.6057C136.647 29.7168 137.092 29.7538 137.536 29.7538C138.351 29.7538 138.684 29.4946 138.684 28.4208V13.4248H127.946C126.761 13.4248 126.169 12.4251 126.169 11.4624C126.169 10.4626 126.761 9.49992 127.946 9.49992H138.684V3.98287C138.684 2.72395 139.832 2.09448 140.943 2.09448C142.053 2.09448 143.127 2.68692 143.127 3.90882V9.49992H153.717C154.902 9.49992 155.494 10.4626 155.494 11.4624C155.494 12.4251 154.902 13.4248 153.717 13.4248H143.127ZM153.68 0.502319C155.902 0.502319 157.642 2.24259 157.642 4.46422C157.642 6.72288 155.902 8.46316 153.68 8.46316C151.421 8.46316 149.681 6.72288 149.681 4.46422C149.681 2.24259 151.421 0.502319 153.68 0.502319ZM153.68 6.6118C154.865 6.6118 155.79 5.64909 155.79 4.46422C155.79 3.27935 154.865 2.35367 153.68 2.35367C152.495 2.35367 151.532 3.27935 151.532 4.46422C151.532 5.64909 152.495 6.6118 153.68 6.6118ZM151.236 18.1643C152.162 20.0527 153.939 22.8297 155.346 24.533C155.828 25.1254 156.05 25.7178 156.05 26.2362C156.05 27.4581 154.976 28.3838 153.828 28.3838C153.125 28.3838 152.347 28.0505 151.755 27.2359C150.31 25.3105 148.348 22.0892 147.311 19.7565C147.163 19.4232 147.089 19.09 147.089 18.7937C147.089 17.6089 148.126 16.9054 149.2 16.9054C150.014 16.9054 150.792 17.2756 151.236 18.1643ZM130.316 18.2754C130.723 17.3497 131.501 16.9424 132.315 16.9424C133.389 16.9424 134.463 17.72 134.463 18.9419C134.463 19.2381 134.426 19.5343 134.278 19.8675C133.093 22.7927 131.241 25.6068 128.983 27.8654C128.427 28.4208 127.798 28.643 127.243 28.643C126.058 28.643 125.058 27.7173 125.058 26.6435C125.058 26.0881 125.28 25.5327 125.835 25.0143C127.687 23.2 129.205 20.8302 130.316 18.2754Z" fill="#E5D8C5"/>
<path d="M92.3936 14.4245V20.8673C92.3936 22.0892 91.3198 22.6816 90.246 22.6816C89.1723 22.6816 88.0985 22.0892 88.0985 20.8673V14.4245H82.3963C81.2855 14.4245 80.693 13.4989 80.693 12.5732C80.693 11.6475 81.2855 10.7218 82.3963 10.7218H88.0985V4.64936C88.0985 3.39044 89.1723 2.798 90.246 2.798C91.3198 2.798 92.3936 3.39044 92.3936 4.64936V10.7218H100.762V4.13098C100.762 2.90908 101.836 2.31665 102.909 2.31665C103.983 2.31665 105.057 2.90908 105.057 4.13098V10.7218H111.537C112.685 10.7218 113.24 11.6475 113.24 12.5732C113.24 13.4989 112.685 14.4245 111.537 14.4245H105.057V15.5724C105.057 24.57 100.947 30.4943 94.2079 33.5306C93.8747 33.6787 93.5415 33.7527 93.2082 33.7527C91.9863 33.7527 91.1347 32.753 91.1347 31.6792C91.1347 30.9387 91.505 30.1981 92.5047 29.7168C97.9847 27.0878 100.762 22.9778 100.762 15.2762V14.4245H92.3936Z" fill="#E5D8C5"/>
</svg>
