<svg width="288" height="86" viewBox="0 0 288 86" fill="none" xmlns="http://www.w3.org/2000/svg">
<path opacity="0.6" d="M265.571 73.7205L263.434 72.8244C263.453 72.1046 262.316 71.1946 260.024 70.0943C255.72 66.3805 253.775 64.249 254.189 63.6996L254.205 63.0998C253.645 63.0852 253.025 62.3087 252.345 60.7704C251.747 59.1543 251.466 57.6664 251.502 56.3069C251.539 54.8674 252.191 52.8837 253.458 50.356C254.804 47.8303 256.461 45.6728 258.429 43.8836C260.396 42.0945 263.21 40.0873 266.869 37.8622C274.352 33.2562 279.629 31.9136 282.7 33.8346C285.061 35.3368 286.688 37.38 287.581 39.9642C287.449 45.0025 286.664 47.5028 285.224 47.4652C284.824 47.4547 284.616 47.7694 284.599 48.4092C284.583 49.049 283.961 49.873 282.734 50.8813C279.148 53.3484 277.144 53.4961 276.721 51.3243C276.342 50.5141 275.992 50.1048 275.672 50.0964C275.199 49.844 274.972 49.3179 274.993 48.5182L275.748 47.2174C276.227 47.23 277.051 46.3312 278.219 44.5211C279.389 42.631 279.981 41.4061 279.996 40.8463C280.01 40.2865 279.939 39.9645 279.781 39.8803C279.703 39.7983 279.344 39.7489 278.704 39.7321C272.393 42.3681 268.459 44.386 266.902 45.7857C266.567 46.3372 266.358 46.6918 266.274 46.8497C266.192 46.9276 265.991 46.9623 265.671 46.954C265.688 46.3142 264.369 47.7602 261.716 51.2921C261.136 52.0772 260.263 53.2948 259.1 54.945C258.525 55.4901 258.185 56.2815 258.078 57.3191C258.05 58.3587 257.995 58.9575 257.911 59.1153C257.906 59.2753 257.901 59.4752 257.895 59.7151C257.971 59.8771 258.006 60.0381 258.002 60.1981C258.08 60.2801 258.196 60.4432 258.35 60.6873C258.585 60.8535 258.781 61.0187 258.937 61.1828C259.095 61.267 259.369 61.4742 259.761 61.8046C260.152 62.1349 260.505 62.4242 260.819 62.6725C267.954 68.3009 271.737 72.0411 272.169 73.893C273.464 76.4077 273.856 78.2586 273.344 79.4456C272.833 80.6327 271.687 81.6031 269.907 82.3568C268.207 83.1126 265.714 83.5676 262.429 83.7218C259.142 83.956 256.663 83.8912 254.991 83.5274C253.567 82.9299 252.188 82.0936 250.856 81.0184C249.525 79.8633 248.631 78.8795 248.172 78.0673C248.201 76.9476 248.457 76.3541 248.939 76.2867C249.501 76.2214 251.976 76.4461 256.364 76.961C258.123 77.007 260.128 76.8593 262.377 76.518C264.629 76.0967 265.882 75.6093 266.137 75.0558C266.381 74.9021 266.192 74.457 265.571 73.7205Z" fill="#E8CC65"/>
<path opacity="0.6" d="M252.013 3.74218C253.476 2.90011 254.528 2.44746 255.17 2.38421C255.892 2.32305 256.964 2.63119 258.387 3.3086C261.06 5.13909 262.009 7.08457 261.235 9.14504C260.859 11.2959 260.285 13.3616 259.513 15.3421C258.743 17.2427 258.271 18.4308 258.099 18.9064C257.312 21.4467 255.189 24.5923 251.73 28.3432C251.722 28.6631 251.316 28.8925 250.512 29.0316C249.788 29.1727 249.224 29.318 248.82 29.4675C247.698 29.5182 246.786 29.2143 246.083 28.5557C245.942 27.8317 246.911 25.9364 248.992 22.8698C251.075 19.7231 252.546 17.0406 253.404 14.8223C253.412 14.5024 253.46 14.2236 253.546 13.9857C252.18 14.1901 250.793 13.6737 249.385 12.4365C246.579 9.56215 247.455 6.66405 252.013 3.74218Z" fill="#E8CC65"/>
<path opacity="0.6" d="M203.367 78.0963C201.977 76.1393 201.064 74.3548 200.626 72.7428C200.27 71.0529 200.123 69.0084 200.186 66.6092C200.249 64.2101 200.596 61.6183 201.229 58.8338C202.847 52.0738 204.042 47.6636 204.816 45.6031C205.079 44.7297 204.694 44.1594 203.661 43.8923C202.709 43.5473 201.553 43.397 200.191 43.4415C198.832 43.4059 198.034 43.305 197.798 43.1388L197.337 42.4065C197.348 42.0067 197.198 41.6026 196.889 41.1944C196.662 40.7083 196.755 40.1906 197.17 39.6412C197.666 39.014 198.155 38.6666 198.637 38.5992C199.119 38.5318 199.922 38.4327 201.046 38.302C202.25 38.1735 203.214 38.0386 203.938 37.8975C206.349 37.4804 208.052 36.6446 209.045 35.3901C210.153 32.7782 211.55 29.8537 213.236 26.6166C214.923 23.2996 216.055 21.3285 216.631 20.7034C218.01 20.0191 219.017 19.7654 219.652 19.9421C220.29 20.0388 220.992 20.7373 221.758 22.0378C222.617 22.8605 222.873 23.7875 222.526 24.8188C222.343 25.6943 220.32 29.6028 216.457 36.5442C217.413 36.7293 218.692 36.7627 220.296 36.6446C222.868 36.2316 225.07 36.1692 226.903 36.4572C230.342 36.5471 232.143 38.0747 232.305 41.0399C232.442 41.9238 232.269 42.4395 231.784 42.5869C231.3 42.7343 228.176 42.8527 222.412 42.942C216.65 42.9514 213.725 43.115 213.636 43.4328C212.822 43.9717 211.362 47.7749 209.257 54.8423C208.182 59.2157 207.557 63.2007 207.383 66.7974C207.209 70.3941 207.624 72.8858 208.628 74.2725C209.329 75.0111 210.685 75.2066 212.695 74.859C214.784 74.5135 216.688 73.6429 218.405 72.2473C220.202 70.8538 221.57 70.5695 222.508 71.3943C223.529 72.1412 223.211 73.6134 221.553 75.8108C220.055 78.0124 218.05 79.6806 215.54 80.8154C213.109 81.9522 210.941 82.2557 209.034 81.7256C207.209 81.1177 205.32 79.908 203.367 78.0963Z" fill="#E8CC65"/>
<path opacity="0.6" d="M173.274 46.699C171.918 43.4625 170.361 41.8212 168.601 41.7752C166.842 41.7292 164.107 43.7784 160.398 47.9229C156.69 51.9874 153.283 56.82 150.175 62.4207L146.998 69.1799C146.975 70.0596 147.975 70.0458 150 69.1384C152.106 68.1531 153.854 67.1184 155.243 66.0343C162.275 60.2962 167.368 55.2676 170.522 50.9485L173.274 46.699ZM142.504 75.7847C142.276 75.2986 141.889 74.8083 141.342 74.3139C140.876 73.7415 140.65 73.2154 140.663 72.7356C140.677 72.1758 140.491 71.6507 140.104 71.1604C138.78 69.7654 141.093 63.9438 147.042 53.6958C147.535 53.2285 148.157 52.4045 148.908 51.2237C149.739 50.045 150.276 49.3789 150.52 49.2252C150.529 48.9053 150.656 48.6285 150.902 48.3949C151.151 48.0813 151.435 47.9286 151.755 47.937L151.773 47.2172C151.792 46.4975 153.158 44.7726 155.87 42.0425C163.1 34.869 168.595 32.852 172.354 35.9913C172.817 36.6436 176.056 39.7693 182.072 45.3685L179.756 51.31C177.861 56.4622 178.253 61.3541 180.933 65.9857C181.31 66.8759 182.087 67.7365 183.266 68.5676C184.445 69.3987 185.632 69.9099 186.827 70.1012C188.578 70.4671 189.434 71.4098 189.394 72.9293C189.354 74.4487 188.611 75.3496 187.163 75.6319C181.786 76.2115 177.313 72.8135 173.745 65.4377C172.665 63.8889 171.991 62.1107 171.723 60.103C170.48 61.7511 169.161 63.2371 167.765 64.5611C156.192 75.6224 147.772 79.3636 142.504 75.7847Z" fill="#E8CC65"/>
<path opacity="0.6" d="M128.171 55.2432L127.405 61.5853L126.585 65.4052L128.505 65.4554L131.128 66.1242C131.825 67.0227 132.453 67.4793 133.013 67.4939C134.293 67.5274 134.517 68.1334 133.686 69.3121C133.271 69.8615 132.779 70.3288 132.209 70.714C128.305 73.0928 125.146 73.0102 122.732 70.4662C120.317 67.9222 119.773 64.2668 121.098 59.4998C121.588 56.0714 121.814 53.5165 121.778 51.8349C121.822 50.1555 121.444 49.3054 120.645 49.2844C118.805 49.2364 114.951 51.2563 109.082 55.3443C103.296 59.3544 98.9062 63.4811 95.9142 67.7244C93.4356 70.7006 91.5144 72.251 90.1507 72.3754C88.8691 72.4219 87.7589 72.0327 86.8201 71.2079C85.9613 70.3852 85.4992 69.6929 85.4339 69.131C85.4506 68.4912 85.6388 67.4157 85.9984 65.9046C88.396 56.8442 90.9654 48.8686 93.7064 41.9779C94.7581 38.4842 96.0517 34.9168 97.5874 31.2757C99.2052 27.5567 100.571 24.2713 101.686 21.4194C102.803 18.4876 103.876 15.7147 104.905 13.1007C105.934 10.4867 106.704 8.58618 107.215 7.39913C107.898 5.73643 108.5 4.15162 109.02 2.64468C109.053 1.36512 109.71 0.742064 110.989 0.775517C112.589 0.817333 113.719 1.96726 114.38 4.22532C115.121 6.48546 114.86 8.83943 113.595 11.2872C112.413 13.6571 110.321 18.6842 107.319 26.3683C104.397 34.0546 102.303 39.1616 101.036 41.6894C101.011 42.649 100.115 44.7864 98.3479 48.1013C98.3396 48.4212 97.7727 50.207 96.6473 53.4587C95.604 56.6325 94.9415 59.016 94.6598 60.6092C95.9137 58.5613 98.0137 56.2954 100.96 53.8115C105.456 50.1678 108.234 47.9996 109.292 47.3071L113.077 44.8852C113.087 44.4853 113.413 44.2937 114.052 44.3104C114.692 44.3272 115.018 44.0956 115.031 43.6158C115.045 43.056 115.978 42.6002 117.828 42.2484C119.679 41.8167 121.205 41.6165 122.405 41.6478C123.604 41.6792 124.479 41.9021 125.028 42.3166C125.578 42.7311 126.274 43.6296 127.119 45.0122C129.282 47.9497 129.633 51.3601 128.171 55.2432Z" fill="#E8CC65"/>
<path opacity="0.6" d="M75.8168 42.1103C75.0678 43.2111 74.5249 44.0773 74.1883 44.7087C73.8517 45.3401 73.675 45.9757 73.6583 46.6155C73.6437 47.1753 71.4178 51.1985 66.9806 58.6851C62.6255 66.0938 59.2496 71.2473 56.8531 74.1457C54.4565 77.044 51.8746 79.3774 49.1075 81.1456C46.4182 82.996 44.5537 83.9076 43.5141 83.8804C41.1907 83.9797 39.6942 83.0603 39.0246 81.1221C37.6228 79.645 36.7859 77.9825 36.5141 76.1348C35.8179 66.0331 36.7253 55.8134 39.2363 45.4755C40.3993 40.7843 41.3331 37.2074 42.0377 34.745C42.8244 32.2047 43.0578 30.9304 42.7379 30.922C42.498 30.9157 41.8741 31.8197 40.8664 33.634C39.8607 35.3683 38.6415 37.6172 37.2088 40.3807C32.5699 49.4626 27.328 58.6487 21.4832 67.9391C21.0708 68.4085 19.7431 70.2144 17.5002 73.3569C15.2594 76.4194 13.4436 78.5326 12.0527 79.6967C8.364 83.0414 5.15254 83.4376 2.41832 80.8853C1.1006 79.2503 0.707791 77.4394 1.2399 75.4526C1.05225 73.4471 1.35881 69.3737 2.15959 63.2325C3.04243 57.0135 3.85601 51.913 4.60033 47.9311C5.34675 43.8692 6.6169 38.1404 8.4108 30.7448C10.2068 23.2692 11.3761 18.3381 11.9186 15.9514C12.5098 14.7665 13.2429 12.7449 14.1179 9.88682C14.995 6.94874 15.4787 5.28081 15.5692 4.88304C15.611 3.28359 16.0001 2.17338 16.7366 1.55241C17.5551 0.853568 18.4011 0.635605 19.2746 0.898523C20.23 1.08356 20.9772 1.58326 21.5161 2.39762C23.7705 4.93741 23.9626 8.30358 22.0924 12.4961C18.2637 21.199 15.0815 32.7198 12.5459 47.0584C9.58529 62.3463 8.42176 70.1185 9.05527 70.3752C9.77084 70.5539 10.7031 70.0981 11.852 69.0078C13.0029 67.8375 14.0434 66.3042 14.9733 64.4078C19.8965 56.6938 25.8001 46.6847 32.6841 34.3804C39.568 22.0761 43.2183 15.6093 43.6349 14.98C44.0535 14.2707 44.5974 13.3646 45.2665 12.2617C45.9376 11.0789 46.4825 10.1328 46.9012 9.42347C47.3199 8.71417 47.7806 7.92594 48.2835 7.05879C48.8663 6.19372 49.3239 5.52545 49.6563 5.05398C49.9909 4.50253 50.3243 3.99107 50.6568 3.5196C51.4858 2.42089 52.0613 1.83573 52.3832 1.76413C55.0182 1.99307 56.862 3.40174 57.9147 5.99013C58.1316 6.87611 57.9855 7.87263 57.4764 8.9797C56.2773 11.9894 55.1026 15.5999 53.9521 19.8113C52.3281 23.7702 51.2438 26.983 50.6991 29.4496C50.1545 31.9162 49.1681 35.9718 47.7401 41.6164C44.9557 53.2276 43.4681 61.1514 43.2773 65.3879C43.1665 69.6264 43.3722 72.4728 43.8943 73.9269C44.0355 74.6509 44.5038 75.1032 45.2994 75.2841C46.097 75.385 46.8251 75.0839 47.4837 74.3809C51.7003 69.2093 55.8641 62.996 59.9751 55.741C64.1661 48.488 69.8285 36.9921 76.9623 21.2532C80.6604 11.4265 82.9239 5.96375 83.7529 4.86504C85.7433 2.19615 87.7173 1.68757 89.6748 3.33929C90.5315 4.24199 90.8969 5.57199 90.7709 7.3293C89.898 10.1074 87.8817 15.2965 84.722 22.8965C81.6443 30.4187 79.5575 35.2458 78.4614 37.3779C77.4473 39.4321 76.5658 41.0095 75.8168 42.1103Z" fill="#E8CC65"/>
</svg>
