<svg width="238" height="86" viewBox="0 0 238 86" fill="none" xmlns="http://www.w3.org/2000/svg">
<path opacity="0.6" d="M215.784 72.4188L213.646 71.5227C213.665 70.8029 212.529 69.8929 210.237 68.7926C205.932 65.0788 203.987 62.9473 204.402 62.3979L204.417 61.7981C203.858 61.7835 203.238 61.007 202.558 59.4687C201.96 57.8526 201.679 56.3647 201.714 55.0052C201.752 53.5657 202.404 51.582 203.67 49.0543C205.017 46.5286 206.674 44.3711 208.641 42.582C210.609 40.7928 213.422 38.7856 217.081 36.5605C224.564 31.9545 229.841 30.6119 232.912 32.5329C235.274 34.0351 236.901 36.0783 237.794 38.6625C237.662 43.7008 236.876 46.2011 235.437 46.1635C235.037 46.153 234.829 46.4677 234.812 47.1075C234.795 47.7473 234.173 48.5713 232.947 49.5796C229.361 52.0467 227.356 52.1944 226.933 50.0226C226.554 49.2124 226.205 48.8031 225.885 48.7947C225.411 48.5423 225.185 48.0162 225.206 47.2165L225.96 45.9157C226.44 45.9283 227.264 45.0295 228.431 43.2194C229.601 41.3293 230.193 40.1044 230.208 39.5446C230.223 38.9848 230.151 38.6628 229.993 38.5786C229.915 38.4966 229.556 38.4472 228.917 38.4304C222.606 41.0664 218.671 43.0843 217.114 44.4841C216.78 45.0355 216.57 45.3902 216.486 45.548C216.404 45.6259 216.203 45.6606 215.883 45.6523C215.9 45.0125 214.582 46.4585 211.929 49.9904C211.348 50.7755 210.476 51.9931 209.312 53.6433C208.738 54.1884 208.397 54.9798 208.29 56.0174C208.263 57.057 208.207 57.6558 208.123 57.8136C208.119 57.9736 208.113 58.1735 208.107 58.4134C208.183 58.5754 208.219 58.7364 208.215 58.8964C208.292 58.9784 208.408 59.1415 208.562 59.3856C208.798 59.5518 208.993 59.717 209.149 59.8811C209.307 59.9653 209.582 60.1725 209.973 60.5029C210.365 60.8332 210.717 61.1225 211.031 61.3708C218.166 66.9992 221.95 70.7394 222.382 72.5913C223.676 75.106 224.068 76.9569 223.557 78.1439C223.046 79.331 221.9 80.3014 220.12 81.0551C218.419 81.8109 215.926 82.2659 212.641 82.4201C209.354 82.6543 206.875 82.5895 205.204 82.2257C203.779 81.6282 202.4 80.7919 201.068 79.7167C199.738 78.5616 198.843 77.5778 198.384 76.7656C198.413 75.6459 198.669 75.0524 199.151 74.985C199.713 74.9197 202.188 75.1444 206.576 75.6593C208.335 75.7053 210.34 75.5576 212.59 75.2163C214.841 74.795 216.095 74.3076 216.349 73.7541C216.593 73.6004 216.405 73.1553 215.784 72.4188Z" fill="#E8CC65"/>
<path opacity="0.6" d="M202.226 2.4406C203.688 1.59854 204.74 1.14588 205.382 1.08263C206.104 1.02148 207.176 1.32961 208.599 2.00703C211.272 3.83752 212.222 5.783 211.447 7.84347C211.071 9.99437 210.497 12.0601 209.725 14.0406C208.955 15.9411 208.484 17.1292 208.311 17.6048C207.525 20.1451 205.402 23.2907 201.942 27.0416C201.934 27.3615 201.528 27.591 200.724 27.73C200 27.8711 199.436 28.0164 199.032 28.1659C197.91 28.2166 196.998 27.9127 196.295 27.2541C196.154 26.5301 197.124 24.6348 199.205 21.5682C201.288 18.4215 202.758 15.7391 203.616 13.5207C203.625 13.2008 203.672 12.922 203.758 12.6842C202.393 12.8885 201.006 12.3721 199.597 11.1349C196.792 8.26057 197.668 5.36248 202.226 2.4406Z" fill="#E8CC65"/>
<path opacity="0.6" d="M169.992 52.8554C170.505 51.5884 170.75 49.8742 170.727 47.7128C170.785 45.4736 170.499 44.1857 169.868 43.8491C167.662 42.511 165.007 43.0418 161.903 45.4415C157.815 48.7757 153.697 54.7502 149.551 63.3647C147.767 67.3195 147.813 70.1216 149.691 71.7713C152.038 73.8333 156.049 71.9375 161.724 66.0838C165.265 62.2551 168.021 57.8456 169.992 52.8554ZM146.862 51.4104C152.452 42.6735 158.828 37.5584 165.99 36.0651C167.682 35.6291 168.886 35.4606 169.604 35.5593C170.402 35.6602 171.345 36.3251 172.433 37.554C174.251 38.4018 175.546 39.3959 176.316 40.5365C177.167 41.6791 177.684 43.3332 177.867 45.4987C178.344 51.7533 176.093 58.2567 171.115 65.0089C169.207 67.5999 167.434 69.5942 165.797 70.9919C164.162 72.3097 162.004 73.7338 159.323 75.2642C156.15 77.262 153 78.34 149.875 78.4984C148.516 78.4628 146.976 77.6623 145.256 76.0969C142.299 72.8985 141.097 69.906 141.65 67.1195L141.962 64.3667C141.572 63.9564 141.461 63.6334 141.627 63.3977C141.873 63.164 142.037 63.0082 142.119 62.9304C142.599 62.9429 142.769 62.5872 142.627 61.8633C142.488 61.0594 142.847 59.5882 143.703 57.4499C144.561 55.2316 145.614 53.2184 146.862 51.4104Z" fill="#E8CC65"/>
<path opacity="0.6" d="M128.171 55.2432L127.405 61.5853L126.585 65.4052L128.505 65.4554L131.128 66.1242C131.825 67.0227 132.453 67.4793 133.013 67.4939C134.293 67.5274 134.517 68.1334 133.686 69.3121C133.271 69.8615 132.779 70.3288 132.209 70.714C128.305 73.0928 125.146 73.0102 122.732 70.4662C120.317 67.9222 119.773 64.2668 121.098 59.4998C121.588 56.0714 121.814 53.5165 121.778 51.8349C121.822 50.1555 121.444 49.3054 120.645 49.2844C118.805 49.2364 114.951 51.2563 109.082 55.3443C103.296 59.3544 98.9062 63.4811 95.9142 67.7244C93.4356 70.7006 91.5144 72.251 90.1507 72.3754C88.8691 72.4219 87.7589 72.0327 86.8201 71.2079C85.9613 70.3852 85.4992 69.6929 85.4339 69.131C85.4506 68.4912 85.6388 67.4157 85.9984 65.9046C88.396 56.8442 90.9654 48.8686 93.7064 41.9779C94.7581 38.4842 96.0517 34.9168 97.5874 31.2757C99.2052 27.5567 100.571 24.2713 101.686 21.4194C102.803 18.4876 103.876 15.7147 104.905 13.1007C105.934 10.4867 106.704 8.58618 107.215 7.39913C107.898 5.73643 108.5 4.15162 109.02 2.64468C109.053 1.36512 109.71 0.742064 110.989 0.775517C112.589 0.817333 113.719 1.96726 114.38 4.22532C115.121 6.48546 114.86 8.83943 113.595 11.2872C112.413 13.6571 110.321 18.6842 107.319 26.3683C104.397 34.0546 102.303 39.1616 101.036 41.6894C101.011 42.649 100.115 44.7864 98.3479 48.1013C98.3396 48.4212 97.7727 50.207 96.6473 53.4587C95.604 56.6325 94.9415 59.016 94.6598 60.6092C95.9137 58.5613 98.0137 56.2954 100.96 53.8115C105.456 50.1678 108.234 47.9996 109.292 47.3071L113.077 44.8852C113.087 44.4853 113.413 44.2937 114.052 44.3104C114.692 44.3272 115.018 44.0956 115.031 43.6158C115.045 43.056 115.978 42.6002 117.828 42.2484C119.679 41.8167 121.205 41.6165 122.405 41.6478C123.604 41.6792 124.479 41.9021 125.028 42.3166C125.578 42.7311 126.274 43.6296 127.119 45.0122C129.282 47.9497 129.633 51.3601 128.171 55.2432Z" fill="#E8CC65"/>
<path opacity="0.6" d="M75.8168 42.1104C75.0678 43.2112 74.5249 44.0773 74.1883 44.7087C73.8517 45.3402 73.675 45.9758 73.6583 46.6155C73.6437 47.1754 71.4178 51.1985 66.9806 58.6851C62.6255 66.0938 59.2496 71.2474 56.8531 74.1457C54.4565 77.0441 51.8746 79.3774 49.1075 81.1457C46.4182 82.996 44.5537 83.9076 43.5141 83.8804C41.1907 83.9798 39.6942 83.0603 39.0246 81.1222C37.6228 79.645 36.7859 77.9826 36.5141 76.1348C35.8179 66.0332 36.7253 55.8134 39.2363 45.4755C40.3993 40.7843 41.3331 37.2075 42.0377 34.7451C42.8244 32.2048 43.0578 30.9304 42.7379 30.9221C42.498 30.9158 41.8741 31.8198 40.8664 33.6341C39.8607 35.3684 38.6415 37.6173 37.2088 40.3808C32.5699 49.4626 27.328 58.6488 21.4832 67.9392C21.0708 68.4086 19.7431 70.2145 17.5002 73.357C15.2594 76.4194 13.4436 78.5327 12.0527 79.6968C8.364 83.0415 5.15254 83.4377 2.41832 80.8854C1.1006 79.2504 0.707791 77.4395 1.2399 75.4527C1.05225 73.4471 1.35881 69.3737 2.15959 63.2326C3.04243 57.0135 3.85601 51.913 4.60033 47.9311C5.34675 43.8693 6.6169 38.1405 8.4108 30.7449C10.2068 23.2692 11.3761 18.3381 11.9186 15.9515C12.5098 14.7665 13.2429 12.745 14.1179 9.88688C14.995 6.9488 15.4787 5.28087 15.5692 4.8831C15.611 3.28365 16.0001 2.17344 16.7366 1.55247C17.5551 0.853629 18.4011 0.635666 19.2746 0.898585C20.23 1.08362 20.9772 1.58332 21.5161 2.39768C23.7705 4.93747 23.9626 8.30364 22.0924 12.4962C18.2637 21.1991 15.0815 32.7199 12.5459 47.0585C9.58529 62.3463 8.42176 70.1186 9.05527 70.3752C9.77084 70.554 10.7031 70.0982 11.852 69.0079C13.0029 67.8375 14.0434 66.3042 14.9733 64.4079C19.8965 56.6939 25.8001 46.6848 32.6841 34.3805C39.568 22.0762 43.2183 15.6094 43.6349 14.9801C44.0535 14.2708 44.5974 13.3647 45.2665 12.2618C45.9376 11.0789 46.4825 10.1328 46.9012 9.42353C47.3199 8.71423 47.7806 7.926 48.2835 7.05885C48.8663 6.19378 49.3239 5.52551 49.6563 5.05404C49.9909 4.50259 50.3243 3.99114 50.6568 3.51966C51.4858 2.42095 52.0613 1.8358 52.3832 1.76419C55.0182 1.99313 56.862 3.4018 57.9147 5.99019C58.1316 6.87617 57.9855 7.87269 57.4764 8.97977C56.2773 11.9895 55.1026 15.6 53.9521 19.8114C52.3281 23.7703 51.2438 26.983 50.6991 29.4496C50.1545 31.9162 49.1681 35.9718 47.7401 41.6165C44.9557 53.2276 43.4681 61.1515 43.2773 65.3879C43.1665 69.6265 43.3722 72.4728 43.8943 73.927C44.0355 74.6509 44.5038 75.1033 45.2994 75.2842C46.097 75.385 46.8251 75.084 47.4837 74.3809C51.7003 69.2094 55.8641 62.9961 59.9751 55.741C64.1661 48.4881 69.8285 36.9922 76.9623 21.2532C80.6604 11.4265 82.9239 5.96381 83.7529 4.8651C85.7433 2.19621 87.7173 1.68763 89.6748 3.33936C90.5315 4.24205 90.8969 5.57205 90.7709 7.32936C89.898 10.1075 87.8817 15.2966 84.722 22.8966C81.6443 30.4187 79.5575 35.2458 78.4614 37.3779C77.4473 39.4321 76.5658 41.0096 75.8168 42.1104Z" fill="#E8CC65"/>
</svg>
